<svg width="50" height="39" viewBox="0 0 50 39" fill="none" xmlns="http://www.w3.org/2000/svg">
<path fill-rule="evenodd" clip-rule="evenodd" d="M47.2221 0H15C13.466 0 12.2221 1.24712 12.2221 2.78556C12.2221 4.32422 13.466 5.57141 15 5.57141H47.2221C48.7564 5.57141 50 4.32429 50 2.78556C50 1.24712 48.7564 0 47.2221 0V0ZM47.2221 33.4286H21.6664C20.1324 33.4286 18.8888 34.6757 18.8888 36.2142C18.8888 37.7526 20.1324 39 21.6664 39H47.2221C48.7564 39 50 37.7526 50 36.2142C50 34.6757 48.7564 33.4286 47.2221 33.4286V33.4286ZM47.2221 16.7139H2.77792C1.24364 16.7139 -7.19633e-08 17.9611 -7.19633e-08 19.4998C-7.19633e-08 21.0382 1.24357 22.2853 2.77792 22.2853H47.2221C48.7564 22.2853 50 21.0382 50 19.4998C50 17.9611 48.7564 16.7139 47.2221 16.7139V16.7139Z" fill="black"/>
</svg>
