<svg width="247" height="47" viewBox="0 0 247 47" fill="none" xmlns="http://www.w3.org/2000/svg">
<path d="M71.125 17.5293C72.3815 16.1947 74.071 15.5273 76.1934 15.5273C78.3158 15.5273 80.002 16.1947 81.252 17.5293C82.502 18.8574 83.127 20.6641 83.127 22.9492C83.127 25.2409 82.502 27.054 81.252 28.3887C80.002 29.7168 78.3158 30.3809 76.1934 30.3809C74.0579 30.3809 72.3652 29.7168 71.1152 28.3887C69.8652 27.054 69.2402 25.2409 69.2402 22.9492C69.2402 20.6641 69.8685 18.8574 71.125 17.5293ZM76.1934 18.4961C75.1973 18.4961 74.3965 18.8997 73.791 19.707C73.1921 20.5143 72.8926 21.5951 72.8926 22.9492C72.8926 24.3099 73.1921 25.3939 73.791 26.2012C74.39 27.0085 75.1908 27.4121 76.1934 27.4121C77.1895 27.4121 77.987 27.0085 78.5859 26.2012C79.1849 25.3939 79.4844 24.3099 79.4844 22.9492C79.4844 21.5951 79.1816 20.5143 78.5762 19.707C77.9772 18.8997 77.1829 18.4961 76.1934 18.4961ZM92.541 30H88.9668V18.7891H84.9043V15.9082H96.6133V18.7891H92.541V30ZM103.43 23.7109C103.326 25.2865 103.046 26.3574 102.59 26.9238V27.1094H107.707V18.7793H103.752L103.43 23.7109ZM101.105 30V32.7832H97.8828V27.1094H98.8398C99.2956 26.7578 99.6113 26.3118 99.7871 25.7715C99.9629 25.2246 100.083 24.4336 100.148 23.3984L100.617 15.9082H111.281V27.1094H113.039V32.7832H109.816V30H101.105ZM125.139 27.1191V30H115.48V15.9082H125.139V18.7891H119.064V21.6016H124.777V24.2383H119.064V27.1191H125.139ZM140.334 30H136.75V18.7891H133.195L132.912 24.2773C132.867 25.1888 132.753 25.9896 132.57 26.6797C132.395 27.3698 132.134 27.9818 131.789 28.5156C131.444 29.043 130.988 29.4466 130.422 29.7266C129.862 30 129.198 30.1367 128.43 30.1367C127.896 30.1367 127.476 30.0911 127.17 30V26.8848C127.482 26.9434 127.723 26.9727 127.893 26.9727C128.218 26.9727 128.495 26.901 128.723 26.7578C128.951 26.6146 129.126 26.3997 129.25 26.1133C129.374 25.8268 129.465 25.5208 129.523 25.1953C129.582 24.8698 129.621 24.4759 129.641 24.0137L130.012 15.9082H140.334V30ZM161.418 30H157.844V18.7891H152.346V30H148.762V15.9082H161.418V30ZM164.934 15.9082H171.105C172.622 15.9082 173.846 16.3639 174.777 17.2754C175.715 18.1868 176.184 19.3978 176.184 20.9082C176.184 22.3991 175.695 23.6003 174.719 24.5117C173.742 25.4167 172.466 25.8691 170.891 25.8691H168.518V30H164.934V15.9082ZM168.518 18.6621V23.1641H170.139C170.907 23.1641 171.503 22.972 171.926 22.5879C172.349 22.2038 172.561 21.6471 172.561 20.918C172.561 20.1823 172.352 19.6224 171.936 19.2383C171.519 18.8542 170.926 18.6621 170.158 18.6621H168.518ZM180.383 17.5293C181.639 16.1947 183.329 15.5273 185.451 15.5273C187.574 15.5273 189.26 16.1947 190.51 17.5293C191.76 18.8574 192.385 20.6641 192.385 22.9492C192.385 25.2409 191.76 27.054 190.51 28.3887C189.26 29.7168 187.574 30.3809 185.451 30.3809C183.316 30.3809 181.623 29.7168 180.373 28.3887C179.123 27.054 178.498 25.2409 178.498 22.9492C178.498 20.6641 179.126 18.8574 180.383 17.5293ZM185.451 18.4961C184.455 18.4961 183.654 18.8997 183.049 19.707C182.45 20.5143 182.15 21.5951 182.15 22.9492C182.15 24.3099 182.45 25.3939 183.049 26.2012C183.648 27.0085 184.449 27.4121 185.451 27.4121C186.447 27.4121 187.245 27.0085 187.844 26.2012C188.443 25.3939 188.742 24.3099 188.742 22.9492C188.742 21.5951 188.439 20.5143 187.834 19.707C187.235 18.8997 186.441 18.4961 185.451 18.4961ZM199.582 23.7109C199.478 25.2865 199.198 26.3574 198.742 26.9238V27.1094H203.859V18.7793H199.904L199.582 23.7109ZM197.258 30V32.7832H194.035V27.1094H194.992C195.448 26.7578 195.764 26.3118 195.939 25.7715C196.115 25.2246 196.236 24.4336 196.301 23.3984L196.77 15.9082H207.434V27.1094H209.191V32.7832H205.969V30H197.258ZM220.725 30L219.846 26.9043H215.246L214.338 30H210.783L215.51 15.9082H219.895L224.631 30H220.725ZM217.473 19.082L215.93 24.3262H219.172L217.658 19.082H217.473ZM234.396 21.8262V15.9082H237.902V21.8262H238.41L242.277 15.9082H246.037L241.35 22.8809L246.33 30H242.199L238.43 24.4922H237.902V30H234.396V24.4922H233.869L230.1 30H226.008L230.949 22.9492L226.223 15.9082H230.021L233.889 21.8262H234.396Z" fill="black"/>
<path fill-rule="evenodd" clip-rule="evenodd" d="M28.9374 0.209287C28.4799 0.499627 28.7553 1.2402 29.7498 2.39441C30.1781 2.89142 30.5286 3.53265 30.5286 3.81886C30.5286 4.15103 31.4003 5.00004 32.9356 6.16332C35.2731 7.93426 35.299 7.94582 33.8297 6.5676C32.372 5.19984 32.3621 5.18085 33.5546 6.04939C34.2355 6.54531 35.3229 7.48705 35.9713 8.14231C37.0913 9.2745 37.1163 9.33367 36.4706 9.33367C36.0971 9.33367 35.4984 9.22221 35.1403 9.08626C34.1928 8.72575 33.0044 9.01994 33.0044 9.61466C33.0044 10.047 32.7326 10.107 30.7673 10.107C29.1927 10.107 28.4607 10.2165 28.2956 10.4771C28.1528 10.7028 28.0596 10.1243 28.0568 8.996C28.0516 6.69006 27.7383 6.43633 24.5628 6.16773L22.3109 5.97701L22.1213 6.98646C22.0173 7.54182 22.0198 9.4655 22.1271 11.2615L22.3219 14.5268L21.0463 14.4227C19.6141 14.3061 19.4955 14.4368 19.4287 16.2061C19.3874 17.3058 19.3814 17.3116 18.2868 17.3094C16.2315 17.3052 15.9484 17.1186 15.9484 15.7688C15.9484 14.8801 15.8398 14.5625 15.5358 14.5625C15.2734 14.5625 15.1168 14.2873 15.1058 13.8057C15.0885 13.0635 15.0833 13.061 14.8329 13.6857C14.6857 14.0534 14.4472 14.2422 14.2695 14.1321C14.1001 14.0273 13.8533 14.1123 13.7213 14.3209C13.5851 14.5359 13.4792 14.5667 13.4767 14.3922C13.4742 14.2086 13.1182 14.1255 12.5953 14.1866C12.0888 14.2455 11.6253 14.1429 11.499 13.9442C11.3425 13.6976 11.279 13.7364 11.2759 14.0809C11.2737 14.3457 11.1651 14.5625 11.0349 14.5625C10.9045 14.5625 10.857 14.8722 10.9293 15.2506C11.0061 15.6521 10.9329 15.9386 10.7538 15.9386C10.5846 15.9386 10.4358 15.4743 10.4229 14.9066L10.3992 13.8745L10.123 14.7001C9.77445 15.7421 9.68092 25.069 9.99343 27.6347C10.1224 28.6943 10.2674 30.7181 10.3158 32.1321C10.3643 33.5461 10.5477 35.3033 10.7235 36.037C11.0228 37.2845 11.1191 38.4291 11.2278 42.0273C11.2988 44.3765 12.0388 44.8331 15.9484 44.939L17.1864 44.9726L17.1245 41.8765C17.073 39.3034 17.1311 38.7805 17.4683 38.7805C17.6915 38.7805 17.876 38.9971 17.8782 39.2621C17.8815 39.6314 17.9368 39.6578 18.1154 39.3763C18.2436 39.174 18.4535 39.0285 18.5819 39.0527C18.7104 39.0766 18.9044 38.8705 19.0133 38.5945C19.1706 38.1949 19.2149 38.1816 19.2303 38.5298C19.2444 38.8465 19.4939 38.9528 20.1351 38.9145C20.6223 38.8856 21.1615 39.0026 21.3335 39.1746C21.5054 39.3466 21.7381 40.7834 21.8504 42.3672C22.055 45.2552 22.3521 46.3662 22.8396 46.0649C23.0899 45.9099 23.2242 46.3181 23.1139 46.899C23.0853 47.0504 23.2093 47.0292 23.3898 46.8517C23.5705 46.6744 23.8789 46.5911 24.0753 46.6665C24.2894 46.7485 24.4817 46.5467 24.5546 46.1631C24.6627 45.5956 24.6808 45.5877 24.7141 46.0946C24.7455 46.5723 24.8921 46.6455 25.6074 46.5404C26.1515 46.4606 26.5507 46.5531 26.7033 46.7944C26.9611 47.2015 27.0931 46.4182 26.9804 45.1512C26.9427 44.7287 27.0458 44.5452 27.2772 44.6222C27.4722 44.6872 27.6582 45.0857 27.6907 45.5076C27.7231 45.9295 27.8345 46.3533 27.9388 46.4493C28.3542 46.8327 27.5765 35.4219 27.0643 33.6204C26.9372 33.1735 27.004 33.0012 27.3041 33.0012C27.6271 33.0012 27.7619 33.5106 27.9063 35.2716C28.1322 38.0325 28.2549 38.5053 28.7454 38.5053C28.9545 38.5053 29.2518 38.7219 29.4062 38.9869C29.5605 39.2519 29.6903 39.3177 29.695 39.133C29.6994 38.9486 29.889 38.8691 30.1159 38.9561C30.3885 39.0609 30.5352 38.9412 30.5478 38.6035C30.5632 38.1979 30.6059 38.1775 30.7541 38.5053C30.9668 38.9745 32.7489 39.0807 33.0669 38.6429C33.1769 38.4915 33.1995 38.1511 33.1172 37.8861C33.0262 37.5935 33.1112 37.4045 33.3334 37.4045C33.548 37.4045 33.8413 38.0019 34.0421 38.8493C34.2308 39.6441 34.6203 40.4799 34.9078 40.7069C35.1956 40.934 35.4896 41.3674 35.5612 41.6701C35.6907 42.2167 35.6918 42.2167 35.7235 41.6655C35.7521 41.1695 35.9427 41.1109 37.5174 41.115C38.4863 41.1175 39.2216 41.0267 39.1517 40.9133C39.0816 40.7999 39.152 40.7069 39.3085 40.7069C39.478 40.7069 39.5261 40.3728 39.4279 39.8813C39.3272 39.3777 39.377 39.0557 39.5558 39.0557C39.7168 39.0557 39.9071 39.5202 39.9789 40.0877C40.0507 40.6555 40.054 38.9987 39.9866 36.4066C39.9192 33.8144 39.7435 30.9661 39.596 30.0769C39.1809 27.5723 38.4552 18.4005 38.456 15.6634C38.4563 14.8983 38.8359 10.5729 38.9096 10.4942C38.9501 10.4516 39.4868 10.8231 40.1027 11.3198C40.7187 11.8168 41.9063 12.7187 42.7415 13.3241C43.5767 13.9296 44.2655 14.6415 44.2718 14.9066C44.2781 15.1716 44.3764 15.3975 44.4897 15.4094C45.4558 15.5079 45.8897 15.7528 46.4841 16.5355C46.8624 17.0336 47.461 17.7153 47.8142 18.0502C48.6057 18.801 50.6106 19.8707 50.6106 19.5424C50.6106 19.4103 50.7655 19.3079 50.9545 19.315C51.8067 19.3467 52.2612 19.2184 52.2612 18.9463C52.2612 18.7839 52.4606 18.4517 52.7044 18.2079C53.1118 17.8003 53.1063 17.7345 52.637 17.3911C52.2623 17.1173 52.2158 16.9623 52.4617 16.8101C52.684 16.6728 52.235 16.1934 51.1311 15.3893C50.2147 14.7216 49.1691 13.8236 48.8076 13.3938C48.4461 12.9639 46.1351 11.0942 43.6721 9.23845C41.2092 7.38303 38.168 5.06636 36.9138 4.09049C34.4957 2.20892 33.0044 1.20332 33.0044 1.45431C33.0044 1.53797 33.2828 1.87427 33.6234 2.20149C34.0966 2.65612 33.8531 2.58567 32.5918 1.90262C31.684 1.4111 30.6856 0.776757 30.3734 0.492747C29.7503 -0.0733476 29.47 -0.128664 28.9374 0.209287ZM22.5508 0.664749C22.1725 0.88106 21.4916 1.06297 21.0377 1.06902C20.0507 1.08196 18.3608 2.15718 16.8073 3.76079C16.1674 4.42128 15.417 4.93041 15.0835 4.93041C14.7589 4.93041 14.2327 5.19185 13.9141 5.51109C12.7004 6.72832 6.73904 10.7097 6.13052 10.7097C5.77235 10.7097 5.49477 10.8759 5.49477 11.0908C5.49477 11.5705 4.50058 12.2332 3.42742 12.4693C2.97572 12.5687 2.03764 13.173 1.34247 13.8126C0.308381 14.764 0.0662958 15.1685 0.0118267 16.0382C-0.0319136 16.7397 0.0459387 17.0391 0.240982 16.9183C0.417869 16.809 0.476189 16.8932 0.386508 17.1272C0.195316 17.6256 1.04784 17.9701 1.51413 17.5832C1.76557 17.374 1.89761 17.3894 1.98042 17.6377C2.05772 17.8699 2.54189 17.6624 3.45136 17.0077C4.19687 16.4708 5.61499 15.5948 6.60259 15.0607C7.59046 14.5268 9.83827 13.0506 11.5983 11.7805C17.3633 7.62025 20.7728 5.23726 21.1899 5.07709C21.4154 4.99068 21.7574 4.66704 21.9502 4.35826C22.2798 3.83069 22.2627 3.81666 21.6693 4.12571C21.0493 4.44853 21.0504 4.44055 21.7255 3.69199C22.1037 3.27258 22.9007 2.57136 23.4965 2.13351C24.795 1.17938 25.0206 0.24699 23.9491 0.261576C23.5582 0.26708 22.929 0.448439 22.5508 0.664749ZM15.9102 4.12104L15.2607 4.68796L16.0172 4.22699C16.4334 3.97353 16.7737 3.71869 16.7737 3.66034C16.7737 3.44541 16.544 3.56815 15.9102 4.12104Z" fill="#207FF1"/>
</svg>
